<svg id="Layer_1" data-name="Layer 1" xmlns="http://www.w3.org/2000/svg" viewBox="0 0 267.37 102.59"><defs><style>.cls-1{fill:#e2001a;}.cls-2{fill:#130817;}</style></defs><title>GMV_CMYKred&amp;amp;black</title><path class="cls-1" d="M524.66,254c-4.37,4.37-27.7,42.33-32.59,42.33-3.42,0-8.51-9.94-11.52-15-10.44-17.4-21.71-34.18-40.92-34.18-9.18,0-18.66,4.8-24.72,11.87-5.27-7.35-11.1-11.87-24.44-11.87-12.38,0-24,6-28.05,16.71-1.28-7.67-3.84-14.91-17.62-16.27-24.47-2.41-40.87,16.84-45.52,38.42-2.93,13.63,5.85,29.46,24.36,29.46,10.88,0,19.46-4.45,22.32-10,0,0-2.41,27.13-26.07,27.13-13.65,0-22.87-9-22.87-9l-2.24,9.43c-2.15,9,9.21,16.67,22.47,16.67,19.43,0,36.29-12.36,41.45-24.58s12.89-44.94,12.89-44.94C374.08,269.79,381,264,388.31,264c8.34,0,12.86,5.37,9.88,17.95l-7,29.39c-2.15,9,2.23,13.85,10.56,13.85h5.09l10.75-45.36c2.48-10.46,9-15.83,16.61-15.83,8.34,0,12.72,5.37,9.73,17.95l-7,29.39c-1.95,8.14,1.48,13.85,11.8,13.85h2.29s2.45-39.26,11.75-39.26c7.76,0,16.2,27.82,25,37.78,0,0,3.21,3.12,6.26,0,2.57-2.64,49.68-67.18,55.11-71.54A18.83,18.83,0,0,0,524.66,254ZM351.19,281.66c-2.87,12.15-11.33,19.21-20.8,19.21-9.05,0-13.37-7.35-11-17.24,2.71-11.44,12-19.64,21.75-19.64C349.45,264,354,269.79,351.19,281.66Z" transform="translate(-294.51 -247.18)"/><path class="cls-1" d="M556.93,248.38a5,5,0,1,1-4.95,5A5,5,0,0,1,556.93,248.38Zm0,9a4.08,4.08,0,1,0-4.07-4.08A4.08,4.08,0,0,0,556.93,257.41Zm-1.9-6.94h2.18c1.36,0,2,.61,2,1.7a1.43,1.43,0,0,1-1.36,1.56l1.48,2.4h-1.09l-1.42-2.32h-.76v2.32h-1Zm1,2.46h.76c.64,0,1.35,0,1.35-.8s-.71-.8-1.35-.78h-.76Z" transform="translate(-294.51 -247.18)"/><path class="cls-2" d="M367.35,339.43H369v9.43h-1.68Z" transform="translate(-294.51 -247.18)"/><path class="cls-2" d="M371.9,339.43h2.22l4.57,7,0,0h0l0,0v-7h1.68v9.43h-2.13l-4.67-7.23h0v7.23H371.9Z" transform="translate(-294.51 -247.18)"/><path class="cls-2" d="M383.29,339.43h2.22l4.57,7,0,0h0l0,0v-7h1.68v9.43h-2.13L385,341.63h0v7.23h-1.68Z" transform="translate(-294.51 -247.18)"/><path class="cls-2" d="M399.14,339.19a4.68,4.68,0,0,1,5,4.94,4.82,4.82,0,0,1-5,5,5,5,0,1,1,0-9.92Zm0,8.39a3.24,3.24,0,0,0,3.25-3.5,3.25,3.25,0,1,0-6.5,0A3.24,3.24,0,0,0,399.16,347.58Z" transform="translate(-294.51 -247.18)"/><path class="cls-2" d="M405.09,339.43H407l2.57,7.13,2.66-7.13h1.81l-3.81,9.43h-1.46Z" transform="translate(-294.51 -247.18)"/><path class="cls-2" d="M418.06,339.43h1.46l4.06,9.43h-1.92l-.88-2.15h-4.09l-.85,2.15H414Zm2.13,5.84-1.45-3.84-1.48,3.84Z" transform="translate(-294.51 -247.18)"/><path class="cls-2" d="M426.41,341h-2.89v-1.52H431V341h-2.89v7.91h-1.68Z" transform="translate(-294.51 -247.18)"/><path class="cls-2" d="M432.85,339.43h1.68v9.44h-1.68Z" transform="translate(-294.51 -247.18)"/><path class="cls-2" d="M437.39,339.43h2.23l4.57,7,0,0h0l0,0v-7h1.68v9.44h-2.13l-4.66-7.24h0v7.24h-1.68Z" transform="translate(-294.51 -247.18)"/><path class="cls-2" d="M457.15,348.17a8.06,8.06,0,0,1-3.9.94,5,5,0,1,1,0-9.92,5.34,5.34,0,0,1,3.71,1.18l-1.23,1.26a3.55,3.55,0,0,0-2.47-.92,3.2,3.2,0,0,0-3.24,3.37,3.24,3.24,0,0,0,3.24,3.51,4.43,4.43,0,0,0,2.21-.5v-2.22h-1.93v-1.52h3.61Z" transform="translate(-294.51 -247.18)"/><path class="cls-2" d="M469,341.45a2,2,0,0,0-1.65-.74c-.77,0-1.55.34-1.55,1.21,0,1.89,4.48.81,4.48,4.17,0,2-1.6,3-3.45,3a3.91,3.91,0,0,1-3.09-1.29L465,346.6a2.23,2.23,0,0,0,1.87,1c.77,0,1.65-.43,1.65-1.3,0-2.06-4.48-.88-4.48-4.25,0-2,1.74-2.85,3.48-2.85a3.88,3.88,0,0,1,2.71,1Z" transform="translate(-294.51 -247.18)"/><path class="cls-2" d="M477.17,339.19a4.68,4.68,0,0,1,5,4.94,4.82,4.82,0,0,1-5,5,5,5,0,1,1,0-9.92Zm0,8.4a3.25,3.25,0,0,0,3.26-3.51,3.25,3.25,0,1,0-6.49,0A3.24,3.24,0,0,0,477.18,347.59Z" transform="translate(-294.51 -247.18)"/><path class="cls-2" d="M484.56,339.43h1.68v7.92h4v1.52h-5.69Z" transform="translate(-294.51 -247.18)"/><path class="cls-2" d="M499.57,345.4a3.8,3.8,0,0,1-7.6,0v-6h1.68v5.92a2.12,2.12,0,1,0,4.24,0v-5.92h1.68Z" transform="translate(-294.51 -247.18)"/><path class="cls-2" d="M504.33,341h-2.9v-1.52h7.47V341H506v7.92h-1.68Z" transform="translate(-294.51 -247.18)"/><path class="cls-2" d="M510.77,339.43h1.67v9.44h-1.67Z" transform="translate(-294.51 -247.18)"/><path class="cls-2" d="M519.79,339.19a4.68,4.68,0,0,1,5,4.94,4.82,4.82,0,0,1-5,5,5,5,0,1,1,0-9.92Zm0,8.4a3.25,3.25,0,0,0,3.25-3.51,3.25,3.25,0,1,0-6.49,0A3.24,3.24,0,0,0,519.81,347.59Z" transform="translate(-294.51 -247.18)"/><path class="cls-2" d="M527.18,339.43h2.23l4.57,7,0,0h0l0,0v-7h1.68v9.44h-2.13l-4.67-7.24h0v7.24h-1.69Z" transform="translate(-294.51 -247.18)"/><path class="cls-2" d="M543.14,341.45a2,2,0,0,0-1.66-.74c-.77,0-1.54.34-1.54,1.21,0,1.89,4.48.81,4.48,4.17,0,2-1.6,3-3.46,3a3.88,3.88,0,0,1-3.08-1.28l1.26-1.23a2.22,2.22,0,0,0,1.87,1c.77,0,1.65-.43,1.65-1.3,0-2.06-4.48-.88-4.48-4.25,0-2,1.73-2.85,3.48-2.85a3.9,3.9,0,0,1,2.71,1Z" transform="translate(-294.51 -247.18)"/></svg>