<svg id="Capa_1" data-name="Capa 1" xmlns="http://www.w3.org/2000/svg" viewBox="0 0 144 73.75"><defs><style>.cls-1{fill:#fa7618;}.cls-2{fill:#fa8a17;}.cls-3{fill:#eb5d13;}.cls-4{fill:#f76f32;}.cls-5{fill:#f6794a;}.cls-6{fill:#f78854;}.cls-7{fill:#f7a55f;}</style></defs><title>logo-para-web</title><g id="_Group_" data-name="&lt;Group&gt;"><path id="_Compound_Path_" data-name="&lt;Compound Path&gt;" class="cls-1" d="M32.65,53.24c0-1.57,0-2.84-.09-4h2.55l.14,1.84h0A4.43,4.43,0,0,1,39.23,49c2.64,0,4.84,2.35,4.84,6.07,0,4.31-2.62,6.39-5.24,6.39a3.73,3.73,0,0,1-3.23-1.59h0v6.17h-2.9Zm2.9,3a3.2,3.2,0,0,0,.1.83,2.65,2.65,0,0,0,2.55,2.11c1.84,0,2.93-1.59,2.93-3.94,0-2.11-1-3.82-2.86-3.82a2.73,2.73,0,0,0-2.6,2.23,2.82,2.82,0,0,0-.12.76Z"/><path id="_Compound_Path_2" data-name="&lt;Compound Path&gt;" class="cls-1" d="M52.93,61.2l-.19-1.32h-.07a4.21,4.21,0,0,1-3.4,1.59,3.47,3.47,0,0,1-3.61-3.55c0-3,2.57-4.53,6.82-4.51v-.2c0-.78-.31-2.08-2.34-2.08a5.92,5.92,0,0,0-3.09.88l-.57-2A8,8,0,0,1,50.64,49c3.68,0,4.74,2.43,4.74,5v4.31a19.82,19.82,0,0,0,.17,2.87Zm-.38-5.83c-2.05,0-4,.42-4,2.23a1.55,1.55,0,0,0,1.65,1.71,2.36,2.36,0,0,0,2.27-1.64,2.24,2.24,0,0,0,.09-.66Z"/><path id="_Compound_Path_3" data-name="&lt;Compound Path&gt;" class="cls-1" d="M58.46,52.83c0-1.37,0-2.52-.09-3.55h2.55l.14,1.79h.07A4.11,4.11,0,0,1,64.78,49c2,0,4.08,1.35,4.08,5.12V61.2H66V54.47c0-1.72-.61-3-2.19-3a2.45,2.45,0,0,0-2.27,1.76,3.17,3.17,0,0,0-.12,1v7H58.46Z"/><path id="_Compound_Path_4" data-name="&lt;Compound Path&gt;" class="cls-1" d="M82.46,49.27c0,.81-.09,1.79-.09,3.43v6.76c0,2.5-.5,4.29-1.7,5.41a6.45,6.45,0,0,1-4.44,1.45,7.9,7.9,0,0,1-4-1l.64-2.28a6.74,6.74,0,0,0,3.35.91c1.89,0,3.3-1,3.3-3.6v-1h0a3.84,3.84,0,0,1-3.35,1.76c-2.86,0-4.88-2.45-4.88-5.83,0-3.92,2.45-6.29,5.21-6.29a3.59,3.59,0,0,1,3.33,1.86h0l.12-1.59Zm-3,4.78a3,3,0,0,0-.09-.81A2.43,2.43,0,0,0,77,51.31c-1.63,0-2.83,1.47-2.83,3.89,0,2,1,3.67,2.81,3.67a2.49,2.49,0,0,0,2.36-1.81A5.34,5.34,0,0,0,79.47,56Z"/><path id="_Compound_Path_5" data-name="&lt;Compound Path&gt;" class="cls-1" d="M87.55,56.08c.07,2.16,1.7,3.09,3.54,3.09a8.34,8.34,0,0,0,3.19-.54l.43,2.08a10.47,10.47,0,0,1-4,.74c-3.73,0-5.92-2.38-5.92-6,0-3.31,1.93-6.42,5.62-6.42s5,3.18,5,5.81a7.57,7.57,0,0,1-.1,1.27Zm5-2.11c0-1.1-.45-2.91-2.38-2.91S87.66,52.75,87.55,54Z"/><path id="_Compound_Path_6" data-name="&lt;Compound Path&gt;" class="cls-1" d="M104.14,61.2,104,59.88h-.07a4.2,4.2,0,0,1-3.4,1.59,3.47,3.47,0,0,1-3.61-3.55c0-3,2.57-4.53,6.82-4.51v-.2c0-.78-.31-2.08-2.34-2.08a5.92,5.92,0,0,0-3.09.88l-.57-2A8,8,0,0,1,101.85,49c3.68,0,4.74,2.43,4.74,5v4.31a19.82,19.82,0,0,0,.17,2.87Zm-.38-5.83c-2.05,0-4,.42-4,2.23a1.55,1.55,0,0,0,1.65,1.71,2.36,2.36,0,0,0,2.27-1.64,2.24,2.24,0,0,0,.09-.66Z"/><path id="_Compound_Path_7" data-name="&lt;Compound Path&gt;" class="cls-1" d="M109.67,52.83c0-1.37,0-2.52-.09-3.55h2.55l.14,1.79h.07A4.11,4.11,0,0,1,116,49c2,0,4.08,1.35,4.08,5.12V61.2h-2.9V54.47c0-1.72-.61-3-2.19-3a2.45,2.45,0,0,0-2.27,1.76,3.17,3.17,0,0,0-.12,1v7h-2.93Z"/><path id="_Compound_Path_8" data-name="&lt;Compound Path&gt;" class="cls-1" d="M126.27,45.94a1.63,1.63,0,1,1-1.63-1.64A1.57,1.57,0,0,1,126.27,45.94ZM123.18,61.2V49.27h2.93V61.2Z"/><path id="_Compound_Path_9" data-name="&lt;Compound Path&gt;" class="cls-1" d="M137.67,60.83a8.14,8.14,0,0,1-3.26.61c-3.59,0-5.92-2.38-5.92-6.07A6.05,6.05,0,0,1,134.88,49a7,7,0,0,1,2.81.56l-.52,2.25a5,5,0,0,0-2.2-.46c-2.22,0-3.54,1.69-3.52,3.87,0,2.45,1.53,3.85,3.52,3.85a5.49,5.49,0,0,0,2.29-.47Z"/></g><path class="cls-2" d="M140.63,9C76.7,10.32,23.78,31.44,10.18,59.31H11C24.64,31.85,77.18,11.06,140.63,9.74Z"/><ellipse id="_Path_" data-name="&lt;Path&gt;" class="cls-3" cx="11.28" cy="58.19" rx="7.91" ry="7.86"/><ellipse id="_Path_2" data-name="&lt;Path&gt;" class="cls-4" cx="43.31" cy="31.48" rx="6.38" ry="6.34"/><circle id="_Path_3" data-name="&lt;Path&gt;" class="cls-5" cx="75.35" cy="18.73" r="5.12"/><circle id="_Path_4" data-name="&lt;Path&gt;" class="cls-6" cx="107.41" cy="12.06" r="3.65"/><circle id="_Path_5" data-name="&lt;Path&gt;" class="cls-7" cx="135.22" cy="9.74" r="2.31"/></svg>